<svg width="21" height="24" viewBox="0 0 21 24" fill="none" xmlns="http://www.w3.org/2000/svg">
<path d="M20.6524 14.0426C20.5265 13.8907 20.3719 13.7651 20.1974 13.6731C20.023 13.581 19.832 13.5243 19.6356 13.5062C19.4392 13.4881 19.2411 13.5089 19.0528 13.5675C18.8644 13.6261 18.6894 13.7212 18.5379 13.8476L11.9993 19.2936V1.50028C11.9993 1.10238 11.8413 0.720778 11.56 0.439421C11.2788 0.158065 10.8974 0 10.4996 0C10.1019 0 9.72043 0.158065 9.43919 0.439421C9.15794 0.720778 8.99994 1.10238 8.99994 1.50028V19.2936L2.46134 13.8476C2.3097 13.7215 2.13472 13.6265 1.94638 13.568C1.75805 13.5096 1.56005 13.4888 1.3637 13.507C1.16734 13.5251 0.976476 13.5817 0.801997 13.6736C0.627518 13.7655 0.472842 13.8909 0.3468 14.0426C0.220758 14.1943 0.125819 14.3694 0.0674028 14.5578C0.00898698 14.7462 -0.0117619 14.9442 0.00634167 15.1407C0.0244452 15.3371 0.0810465 15.5281 0.172913 15.7026C0.26478 15.8772 0.390114 16.0319 0.541758 16.158L9.53982 23.6594L9.76477 23.7944L9.95973 23.8994C10.3072 24.0335 10.6921 24.0335 11.0395 23.8994L11.2345 23.7944L11.4594 23.6594L20.4575 16.158C20.6093 16.032 20.7349 15.8774 20.8269 15.7028C20.9189 15.5282 20.9756 15.3373 20.9937 15.1408C21.0118 14.9443 20.991 14.7461 20.9324 14.5577C20.8738 14.3692 20.7787 14.1942 20.6524 14.0426Z" fill="black"/>
</svg>
