<svg width="40" height="40" viewBox="0 0 40 40" fill="none" xmlns="http://www.w3.org/2000/svg">
<circle cx="20" cy="20" r="20" fill="white"/>
<path d="M28.125 12.5H11.875C10.8395 12.5 10 13.3395 10 14.375V25.625C10 26.6605 10.8395 27.5 11.875 27.5H28.125C29.1605 27.5 30 26.6605 30 25.625V14.375C30 13.3395 29.1605 12.5 28.125 12.5ZM28.125 14.375V15.9689C27.2491 16.6822 25.8528 17.7913 22.8677 20.1287C22.2098 20.6462 20.9067 21.8893 20 21.8748C19.0934 21.8895 17.7899 20.646 17.1323 20.1287C14.1477 17.7916 12.751 16.6823 11.875 15.9689V14.375H28.125ZM11.875 25.625V18.3749C12.7701 19.0879 14.0394 20.0883 15.9741 21.6033C16.8279 22.2754 18.3231 23.759 20 23.75C21.6686 23.759 23.1449 22.2969 24.0255 21.6036C25.9602 20.0886 27.2299 19.0879 28.125 18.375V25.625H11.875Z" fill="#06111B"/>
</svg>
