<svg width="48" height="48" viewBox="0 0 48 48" fill="none" xmlns="http://www.w3.org/2000/svg">
<path d="M34.7535 0H13.246C5.94215 0 0 5.94243 0 13.2463V34.7537C0 42.0578 5.94215 48 13.246 48H34.7535C42.0578 48 48 42.0576 48 34.7537V13.2463C48.0003 5.94243 42.0578 0 34.7535 0ZM43.7415 34.7537C43.7415 39.7096 39.7096 43.7412 34.7537 43.7412H13.246C8.29045 43.7415 4.25879 39.7096 4.25879 34.7537V13.2463C4.25879 8.29073 8.29045 4.25879 13.246 4.25879H34.7535C39.7093 4.25879 43.7412 8.29073 43.7412 13.2463V34.7537H43.7415Z" fill="black"/>
<path d="M24.0002 11.6321C17.1802 11.6321 11.6318 17.1805 11.6318 24.0005C11.6318 30.8203 17.1802 36.3683 24.0002 36.3683C30.8203 36.3683 36.3686 30.8203 36.3686 24.0005C36.3686 17.1805 30.8203 11.6321 24.0002 11.6321ZM24.0002 32.1093C19.5288 32.1093 15.8906 28.4717 15.8906 24.0002C15.8906 19.5285 19.5285 15.8906 24.0002 15.8906C28.472 15.8906 32.1098 19.5285 32.1098 24.0002C32.1098 28.4717 28.4717 32.1093 24.0002 32.1093Z" fill="black"/>
<path d="M36.8868 8.02103C36.0663 8.02103 35.2602 8.35321 34.6807 8.93525C34.0984 9.51444 33.7637 10.3208 33.7637 11.1441C33.7637 11.965 34.0987 12.771 34.6807 13.353C35.2599 13.9322 36.0663 14.2673 36.8868 14.2673C37.7102 14.2673 38.5136 13.9322 39.0957 13.353C39.6777 12.771 40.0099 11.9647 40.0099 11.1441C40.0099 10.3208 39.6777 9.51444 39.0957 8.93525C38.5165 8.35321 37.7102 8.02103 36.8868 8.02103Z" fill="black"/>
</svg>
