<svg width="40" height="40" viewBox="0 0 40 40" fill="none" xmlns="http://www.w3.org/2000/svg">
<circle cx="20" cy="20" r="20" fill="white"/>
<path d="M14.4768 29.9996H10.3304V16.6469H14.4768V29.9996ZM12.4013 14.8254C11.0754 14.8254 10 13.7272 10 12.4013C10 11.7645 10.253 11.1537 10.7033 10.7033C11.1537 10.253 11.7645 10 12.4013 10C13.0382 10 13.649 10.253 14.0993 10.7033C14.5497 11.1537 14.8027 11.7645 14.8027 12.4013C14.8027 13.7272 13.7268 14.8254 12.4013 14.8254ZM29.9955 29.9996H25.858V23.4996C25.858 21.9504 25.8268 19.9638 23.7022 19.9638C21.5464 19.9638 21.2161 21.6469 21.2161 23.3879V29.9996H17.0741V16.6469H21.0509V18.4683H21.1089C21.6625 17.4192 23.0147 16.3121 25.0321 16.3121C29.2286 16.3121 30 19.0754 30 22.6647V29.9996H29.9955Z" fill="#06111B"/>
</svg>
