<svg width="48" height="48" viewBox="0 0 48 48" fill="none" xmlns="http://www.w3.org/2000/svg">
<path d="M15.0007 39.6562H8.43823V18.4688H15.0007V39.6562ZM15.6555 11.7184C15.6555 9.59692 13.9343 7.875 11.814 7.875C9.68555 7.875 7.96875 9.59692 7.96875 11.7184C7.96875 13.8406 9.68555 15.5625 11.814 15.5625C13.9343 15.5625 15.6555 13.8406 15.6555 11.7184ZM39.5625 27.9998C39.5625 22.3121 38.361 18.0938 31.7168 18.0938C28.5242 18.0938 26.3811 19.6904 25.5062 21.3508H25.5V18.4688H19.125V39.6562H25.5V29.1365C25.5 26.3815 26.2013 23.7125 29.6162 23.7125C32.9846 23.7125 33.0938 26.863 33.0938 29.3115V39.6562H39.5625V27.9998ZM48 42.375V5.625C48 2.52319 45.4768 0 42.375 0H5.625C2.52319 0 0 2.52319 0 5.625V42.375C0 45.4768 2.52319 48 5.625 48H42.375C45.4768 48 48 45.4768 48 42.375ZM42.375 3.75C43.4088 3.75 44.25 4.59119 44.25 5.625V42.375C44.25 43.4088 43.4088 44.25 42.375 44.25H5.625C4.59119 44.25 3.75 43.4088 3.75 42.375V5.625C3.75 4.59119 4.59119 3.75 5.625 3.75H42.375Z" fill="black"/>
</svg>
