<svg width="50" height="50" viewBox="0 0 50 50" fill="none" xmlns="http://www.w3.org/2000/svg">
<path d="M45.2271 1H4.77287C2.69262 1 1 2.69262 1 4.77287V45.2273C1 47.3078 2.69262 49.0002 4.77287 49.0002H45.2271C47.3074 49.0002 49 47.3078 49 45.2273V4.77287C49 2.69262 47.3074 1 45.2271 1ZM45.7661 45.2273C45.7661 45.5195 45.5193 45.7663 45.2271 45.7663H4.77287C4.48074 45.7663 4.23389 45.5195 4.23389 45.2273V4.77287C4.23389 4.48074 4.48074 4.23389 4.77287 4.23389H45.2271C45.5193 4.23389 45.7661 4.48074 45.7661 4.77287V45.2273Z" fill="#000002" stroke="black"/>
<path d="M24.9996 10.7709C17.1536 10.7709 10.7705 17.1541 10.7705 25C10.7705 32.8461 17.1536 39.2291 24.9996 39.2291C27.3009 39.2291 29.5872 38.6666 31.6119 37.6025C32.4022 37.187 32.7062 36.2093 32.2908 35.4189C31.8753 34.6282 30.8974 34.3246 30.1072 34.74C28.5226 35.5729 26.8044 35.9952 24.9998 35.9952C18.9369 35.9952 14.0046 31.0627 14.0046 25C14.0046 18.9373 18.9369 14.0048 24.9998 14.0048C31.0627 14.0048 35.9951 18.9373 35.9951 25C35.9951 26.7206 35.1157 28.1019 33.643 28.6948C32.6001 29.1146 31.4676 29.0549 30.5154 28.5775C30.8758 27.8749 31.1369 27.0999 31.2738 26.2713C31.3553 25.7779 31.3881 25.2841 31.376 24.7963L31.379 18.8722C31.3794 17.979 30.6559 17.2548 29.7629 17.2544C29.7627 17.2544 29.7625 17.2544 29.7621 17.2544C28.8695 17.2544 28.1456 17.9777 28.1451 18.8705V18.9091C27.4455 18.4723 26.6668 18.1739 25.8351 18.0366C25.4974 17.9807 25.1533 17.9525 24.8125 17.9525C21.4738 17.9525 18.6248 20.5323 18.0381 24.0865C17.3881 28.025 19.828 31.7192 23.4771 32.3217C23.8145 32.3774 24.1584 32.4056 24.499 32.4056C25.9396 32.4056 27.2886 31.9246 28.4045 31.0929C30.2909 32.3159 32.6803 32.5679 34.8507 31.6946C37.5514 30.6073 39.2292 28.0422 39.2292 24.9998C39.2287 17.1541 32.8457 10.7709 24.9996 10.7709ZM24.0036 29.1312C22.1137 28.8192 20.8689 26.7924 21.2287 24.6134C21.5512 22.6595 23.0918 21.1864 24.8125 21.1864C24.9774 21.1864 25.1441 21.2 25.3081 21.2271C26.1932 21.3731 26.9699 21.9026 27.4953 22.7182C27.9039 23.3522 28.1229 24.0982 28.1419 24.878V25.0373C28.1393 25.2712 28.1221 25.5073 28.083 25.7442C27.7605 27.6981 26.2197 29.1715 24.499 29.1715C24.3339 29.1719 24.1672 29.1581 24.0036 29.1312Z" fill="#000002"/>
</svg>
