<svg width="57" height="57" viewBox="0 0 57 57" fill="none" xmlns="http://www.w3.org/2000/svg">
<g clip-path="url(#clip0)">
<path d="M47.272 2.18873L11.0462 7.27994C9.66812 7.47361 8.70489 8.75231 8.89856 10.1304L9.43175 13.9242L3.64149 14.738C2.26343 14.9316 1.29982 16.2104 1.49349 17.5884L6.01307 49.7469C6.38868 52.4196 8.86027 54.2918 11.5322 53.936L11.542 53.9346C11.5508 53.9337 11.5588 53.9334 11.5675 53.9321L37.2244 50.3263C37.6248 50.27 37.9041 49.8999 37.8478 49.4991C37.7915 49.0987 37.421 48.8194 37.0205 48.8757L14.828 51.9947C15.5729 50.9928 15.9403 49.7093 15.7532 48.378L13.3695 31.4171C13.3132 31.0167 12.9427 30.7375 12.5422 30.7938C12.1414 30.8501 11.8626 31.2206 11.9189 31.621L14.3026 48.5819C14.5666 50.4609 13.2577 52.2046 11.3821 52.4786C11.376 52.4794 11.3699 52.4795 11.3635 52.4804C9.47804 52.745 7.72847 51.4273 7.46366 49.5431L2.94408 17.3846C2.86285 16.8066 3.26701 16.2698 3.84535 16.1885L9.63562 15.3748L11.5383 28.9132C11.5946 29.314 11.9647 29.5929 12.3655 29.5366C12.766 29.4803 13.0452 29.1102 12.9889 28.7094L10.3492 9.9265C10.2679 9.34816 10.6721 8.81175 11.25 8.73052L47.4758 3.63932C48.0542 3.55804 48.5906 3.96225 48.6719 4.5406L54.0759 42.9921C54.3409 44.8775 53.0223 46.6268 51.1369 46.8918L39.7283 48.4952C39.3275 48.5515 39.0487 48.922 39.1049 49.3224C39.1613 49.7232 39.5314 50.0021 39.9322 49.9458L51.3408 48.3424C54.0263 47.965 55.9038 45.4734 55.5265 42.7883L50.1225 4.33673C49.9288 2.95867 48.65 1.99506 47.272 2.18873V2.18873Z" fill="#8E90A6"/>
<path d="M20.2167 35.5033L30.1642 34.1053C31.1104 33.9723 31.7721 33.0943 31.6391 32.148L30.2411 22.2005C30.1081 21.2542 29.23 20.5925 28.2837 20.7255L18.3363 22.1236C17.39 22.2565 16.7283 23.1346 16.8613 24.0809L18.2593 34.0284C18.3923 34.9747 19.2704 35.6363 20.2167 35.5033V35.5033ZM18.3119 23.877C18.2913 23.7305 18.3936 23.5947 18.5401 23.5741L28.4876 22.1761C28.6338 22.1556 28.7699 22.2578 28.7905 22.4044L30.1885 32.3518C30.2091 32.498 30.1065 32.6342 29.9603 32.6547L20.0128 34.0528C19.8662 34.0734 19.7305 33.9707 19.7099 33.8245L18.3119 23.877Z" fill="#8E90A6"/>
<path d="M32.8393 21.5642L46.3007 19.6724C46.7011 19.6161 46.9804 19.2459 46.9241 18.8451C46.8677 18.4443 46.4973 18.1655 46.0968 18.2218L32.6355 20.1136C32.235 20.1699 31.9558 20.5401 32.0121 20.9409C32.0684 21.3417 32.4389 21.6205 32.8393 21.5642V21.5642Z" fill="#8E90A6"/>
<path d="M33.6782 27.5291L47.1396 25.6372C47.54 25.5809 47.8192 25.2104 47.7629 24.81C47.7066 24.4092 47.3361 24.1303 46.9357 24.1866L33.4743 26.0785C33.0739 26.1348 32.7946 26.5049 32.851 26.9057C32.9072 27.3061 33.2778 27.5854 33.6782 27.5291V27.5291Z" fill="#8E90A6"/>
<path d="M34.5161 33.4934L47.9775 31.6016C48.3779 31.5453 48.6571 31.1748 48.6008 30.7743C48.5445 30.3735 48.174 30.0947 47.7736 30.151L34.3122 32.0428C33.9118 32.0991 33.6325 32.4693 33.6888 32.8701C33.7451 33.2705 34.1157 33.5497 34.5161 33.4934V33.4934Z" fill="#8E90A6"/>
<path d="M20.063 41.607L48.8152 37.5661C49.2156 37.5098 49.4949 37.1397 49.4386 36.7389C49.3823 36.3384 49.0118 36.0592 48.6113 36.1155L19.8591 40.1564C19.4587 40.2126 19.1794 40.5832 19.2357 40.9836C19.2921 41.3844 19.6625 41.6632 20.063 41.607V41.607Z" fill="#8E90A6"/>
<path d="M20.9018 47.5718L49.6541 43.5309C50.0545 43.4747 50.3338 43.1045 50.2774 42.7037C50.2211 42.3029 49.8506 42.0241 49.4502 42.0803L20.698 46.1212C20.2975 46.1775 20.0183 46.5476 20.0746 46.9484C20.1309 47.3492 20.5014 47.6281 20.9018 47.5718V47.5718Z" fill="#8E90A6"/>
<path d="M16.1168 18.6504L15.0397 10.9865C15.0176 10.829 15.0755 10.6983 15.2135 10.5949C15.3515 10.4912 15.527 10.4242 15.7393 10.3943C16.023 10.3544 16.2463 10.3755 16.4106 10.4567C16.5742 10.5382 16.7707 10.7355 16.9995 11.0481L19.8976 15.1329L19.2304 10.3856C19.2083 10.2281 19.2665 10.0997 19.405 9.9997C19.5432 9.90016 19.719 9.83501 19.9316 9.80512C20.1443 9.77523 20.3308 9.78947 20.4915 9.84702C20.6522 9.90494 20.7435 10.0123 20.7656 10.1698L21.8444 17.8455C21.8655 17.9954 21.805 18.1241 21.6638 18.2322C21.5226 18.3406 21.3496 18.4089 21.1449 18.4376C20.7274 18.4963 20.4094 18.3765 20.1909 18.0778L16.9849 13.6874L17.652 18.4347C17.6731 18.5846 17.613 18.7133 17.4718 18.8213C17.3306 18.9298 17.1572 18.9981 16.9525 19.0268C16.7402 19.0567 16.5528 19.0391 16.3914 18.9732C16.2293 18.9077 16.1379 18.8004 16.1168 18.6504Z" fill="#8E90A6"/>
<path d="M23.2614 17.6465L22.1843 9.98258C22.1632 9.83298 22.2135 9.70573 22.3354 9.6C22.457 9.4947 22.6081 9.42917 22.7894 9.40368L26.9934 8.81284C27.1506 8.79076 27.2805 8.84106 27.3817 8.96321C27.4832 9.08531 27.5464 9.23322 27.5707 9.40623C27.5972 9.59511 27.5765 9.7629 27.5088 9.90878C27.4408 10.0551 27.3319 10.1382 27.1826 10.1592L23.8406 10.6289L24.1726 12.9906L25.9677 12.7383C26.1169 12.7173 26.2437 12.7619 26.3477 12.8717C26.4514 12.9816 26.515 13.119 26.5383 13.2845C26.5593 13.4341 26.5368 13.5755 26.4713 13.7096C26.4057 13.8432 26.2945 13.9208 26.137 13.943L24.3419 14.1953L24.6755 16.5691L28.0175 16.0994C28.1667 16.0784 28.2943 16.1287 28.4 16.2502C28.5054 16.3721 28.5715 16.5273 28.598 16.7162C28.6223 16.8892 28.6024 17.0488 28.5385 17.1942C28.475 17.3398 28.3638 17.4233 28.2067 17.4454L24.0026 18.0362C23.8213 18.0617 23.6581 18.0407 23.5122 17.973C23.3659 17.9049 23.2824 17.7965 23.2614 17.6465V17.6465Z" fill="#8E90A6"/>
<path d="M28.3314 9.25095C28.3082 9.08549 28.3942 8.92703 28.5897 8.77512C28.7848 8.62327 28.9969 8.53107 29.225 8.499C29.5087 8.45913 29.6923 8.53772 29.7759 8.73477L32.5416 14.8732L32.9677 10.6225C32.9985 10.3289 33.2305 10.1518 33.6634 10.091C34.0888 10.0312 34.3565 10.1381 34.4674 10.4118L36.0487 14.3803L37.0148 7.7174C37.0412 7.5049 37.1961 7.37874 37.4798 7.33887C37.7079 7.30681 37.9368 7.33705 38.1666 7.42918C38.3964 7.5213 38.5227 7.64993 38.546 7.81539C38.5526 7.86261 38.5513 7.91094 38.5425 7.96034L37.2481 15.7168C37.1786 16.0802 36.8682 16.3003 36.3174 16.3777C36.0813 16.4108 35.8623 16.3954 35.6607 16.3313C35.4591 16.2676 35.3266 16.1556 35.2641 15.9956L34.0605 12.9136L33.741 16.2097C33.7246 16.3807 33.6285 16.5248 33.4523 16.6417C33.2762 16.7589 33.0699 16.8341 32.8338 16.8673C32.5897 16.9016 32.3669 16.8867 32.1653 16.8225C31.9633 16.7588 31.8275 16.6474 31.757 16.4885L28.3748 9.38932C28.3523 9.34433 28.3381 9.29817 28.3314 9.25095V9.25095Z" fill="#8E90A6"/>
<path d="M39.8715 14.4209C39.8461 14.24 39.8891 14.0471 40.001 13.8426C40.1125 13.6386 40.2551 13.5242 40.4285 13.4998C40.5305 13.4855 40.6538 13.5182 40.7975 13.5982C40.9412 13.6777 41.0823 13.7689 41.2209 13.87C41.3596 13.9714 41.5501 14.0552 41.7925 14.1213C42.0344 14.1875 42.2933 14.2008 42.5686 14.1621C42.9468 14.1089 43.2493 13.9782 43.4769 13.7694C43.7045 13.561 43.7944 13.2875 43.7468 12.9491C43.7136 12.7126 43.6153 12.5119 43.4514 12.3461C43.2879 12.1807 43.085 12.0525 42.8434 11.962C42.6023 11.8715 42.3394 11.7878 42.0559 11.7113C41.772 11.6349 41.4843 11.5447 41.1928 11.4413C40.9013 11.3378 40.6311 11.2132 40.3818 11.0675C40.1325 10.9219 39.918 10.7113 39.739 10.4352C39.5596 10.1596 39.4436 9.83265 39.3905 9.45489C39.3309 9.03143 39.363 8.64556 39.4868 8.29841C39.6105 7.95089 39.8015 7.6675 40.0595 7.44787C40.3175 7.22824 40.602 7.05383 40.9132 6.92457C41.224 6.79537 41.5607 6.70491 41.9229 6.65399C42.1273 6.62527 42.3458 6.60921 42.5783 6.60542C42.8105 6.60168 43.0591 6.61412 43.3243 6.64272C43.5891 6.67137 43.8119 6.74331 43.9925 6.85776C44.1731 6.9726 44.2767 7.12292 44.3028 7.30915C44.3275 7.48443 44.2978 7.6735 44.2142 7.87632C44.1302 8.07919 43.9937 8.19352 43.8049 8.22007C43.7339 8.23005 43.5303 8.18238 43.1946 8.07701C42.8585 7.9717 42.4978 7.94612 42.1122 8.00032C41.6868 8.0601 41.3695 8.18713 41.1602 8.38103C40.9506 8.57536 40.8655 8.81383 40.9053 9.09715C40.9374 9.32569 41.0598 9.51112 41.2729 9.65376C41.4855 9.79645 41.7391 9.90141 42.0336 9.96828C42.3276 10.0352 42.6498 10.1267 42.9993 10.242C43.3483 10.3575 43.6763 10.4901 43.9824 10.6397C44.2881 10.7894 44.5611 11.0299 44.8003 11.3615C45.0396 11.6934 45.1929 12.0994 45.2604 12.5796C45.3739 13.3868 45.2035 14.0464 44.7498 14.5574C44.2955 15.0685 43.6475 15.3834 42.8051 15.5018C42.0571 15.6069 41.3941 15.5433 40.8156 15.3114C40.2369 15.0803 39.9224 14.7832 39.8715 14.4209V14.4209Z" fill="#8E90A6"/>
</g>
<defs>
<clipPath id="clip0">
<rect width="50" height="50" fill="white" transform="translate(0 6.95874) rotate(-8)"/>
</clipPath>
</defs>
</svg>
