<svg width="48" height="48" viewBox="0 0 48 48" fill="none" xmlns="http://www.w3.org/2000/svg">
<rect x="2" y="2" width="44" height="44" rx="3" stroke="black" stroke-width="4"/>
<path d="M31.517 37.9443C25.8126 37.9369 20.3439 35.6675 16.3103 31.6339C12.2767 27.6003 10.0074 22.1317 10 16.4273C10 14.7227 10.6771 13.088 11.8825 11.8826C13.0878 10.6773 14.7226 10.0002 16.4271 10.0002C16.7881 9.99741 17.1484 10.0302 17.503 10.098C17.8457 10.1487 18.1827 10.2329 18.509 10.3495C18.7385 10.43 18.943 10.569 19.1022 10.7528C19.2615 10.9366 19.3701 11.1588 19.4172 11.3974L21.3313 19.7806C21.3829 20.0081 21.3767 20.245 21.3133 20.4695C21.2498 20.6941 21.1311 20.8991 20.9681 21.066C20.7864 21.2616 20.7725 21.2756 19.0539 22.1698C20.4301 25.189 22.8448 27.6136 25.8583 29.0022C26.7665 27.2696 26.7804 27.2556 26.976 27.074C27.1429 26.9109 27.348 26.7923 27.5725 26.7288C27.7971 26.6654 28.0339 26.6591 28.2615 26.7107L36.6447 28.6249C36.8757 28.6785 37.0892 28.79 37.2652 28.9489C37.4412 29.1077 37.5738 29.3088 37.6507 29.5331C37.7686 29.8647 37.8574 30.206 37.9162 30.553C37.9724 30.9042 38.0004 31.2593 38 31.6149C37.9742 33.3122 37.278 34.9304 36.0634 36.1162C34.8488 37.3021 33.2144 37.9592 31.517 37.9443ZM16.4271 12.7946C15.4648 12.7983 14.543 13.1822 13.8625 13.8626C13.182 14.5431 12.7981 15.465 12.7944 16.4273C12.7981 21.3917 14.7718 26.1517 18.2822 29.6621C21.7926 33.1724 26.5526 35.1462 31.517 35.1499C32.4793 35.1462 33.4012 34.7623 34.0816 34.0818C34.7621 33.4013 35.146 32.4794 35.1497 31.5171V31.056L28.6667 29.561L28.2615 30.3295C27.6327 31.5451 27.1717 32.4253 25.998 31.9503C23.6827 31.1215 21.581 29.7874 19.8457 28.0449C18.1105 26.3024 16.7851 24.1952 15.9661 21.8764C15.4631 20.7866 16.4132 20.2836 17.6148 19.6548L18.3832 19.2776L16.8882 12.7946H16.4271Z" fill="black" stroke="black" stroke-width="0.5"/>
</svg>